<svg width="36" height="36" viewBox="0 0 36 36" fill="none" xmlns="http://www.w3.org/2000/svg">
<g clip-path="url(#clip0_637_3358)">
<path d="M34.344 0H1.656C0.741417 0 0 0.741417 0 1.656V34.344C0 35.2586 0.741417 36 1.656 36H34.344C35.2586 36 36 35.2586 36 34.344V1.656C36 0.741417 35.2586 0 34.344 0Z" fill="#0468FF"/>
<path d="M27.1044 30.1485C26.4279 30.1485 25.7005 30.0893 25.7005 29.5551V26.844C25.8563 26.8393 26.351 26.8212 26.8905 26.8212C27.6307 26.8212 28.4553 26.8552 28.6053 27.004L28.8071 25.7996C28.7621 25.8379 28.4671 25.8492 27.9396 25.8492C27.4163 25.8492 26.6643 25.8381 25.7005 25.831L25.6968 23.3925C25.6968 23.0271 25.987 23.0119 26.833 23.0119H27.342C28.1488 23.0119 28.9641 23.1342 29.0102 23.3191C29.126 22.6627 29.2061 22.3892 29.2129 22.3508C29.2398 22.1978 29.1191 22.1414 28.9849 22.1414H27.9765C27.5422 22.1414 27.5293 21.7084 27.5293 21.6538C27.5293 19.0072 27.5143 17.6638 27.5143 17.6638C27.5143 13.7777 27.437 13.5287 27.8865 13.3173H27.1535C29.2454 6.82293 30.1379 4.64518 30.3042 4.52148C29.9826 4.56098 29.6623 4.58073 29.3546 4.58073C29.047 4.58073 28.7394 4.56098 28.4178 4.52148C28.5944 4.61128 28.6715 4.75798 28.6715 4.96478C28.6715 5.49828 27.2115 9.83778 26.8719 10.6383C26.4843 9.63953 24.611 5.28673 24.611 4.52148C24.4528 4.54938 23.9269 4.57548 23.7266 4.57548C23.4512 4.57548 23.1155 4.56653 22.7485 4.52148C22.8863 4.57438 22.9274 4.74263 22.9274 4.89068C22.9274 5.42158 21.3717 9.88128 21.2487 10.217C18.7949 5.44338 19.0848 4.54758 18.5167 4.54758C18.5143 4.54758 17.1606 4.60003 15.2662 4.60003C14.326 4.60003 13.2526 4.58713 12.145 4.54843C12.6359 4.62703 12.6995 5.29478 12.6995 7.27563C12.6995 8.33458 12.6782 9.77423 12.6782 11.7163C8.95984 5.87223 8.58404 5.25563 8.58404 4.61758V4.54843H5.95939C6.29364 4.76953 6.43959 5.32083 6.43959 8.42238C6.43959 10.6079 6.31895 12.6211 6.31895 12.6211C6.2734 13.3713 5.53899 13.4253 5.53899 13.4253H7.57979C7.96899 13.4253 8.12434 13.6236 8.12434 13.8976C8.12434 14.2677 7.85909 14.6988 7.66544 15.0411C7.17359 15.9104 6.35004 17.3536 6.35004 17.3536C4.89374 14.6585 4.54794 13.8056 3.49999 13.3173H1.40234C2.44219 13.5126 3.46119 14.709 4.4433 16.5326C5.348 18.2124 5.3761 18.6074 5.3761 19.831L5.36709 21.1485C5.36709 21.9774 4.58584 22.1954 4.58584 22.1954H5.83365C6.66375 22.1954 6.69404 23.461 6.69404 23.461C6.69404 24.5744 6.71489 25.6978 6.71489 26.5954C6.71489 28.4324 6.69434 29.4195 6.69434 29.5656C6.69434 30.8199 6.06875 31.0722 6.06875 31.0722C6.53145 31.046 6.96239 31.0182 7.36194 31.0182C8.8883 31.0182 9.8544 31.0992 10.4983 31.0992C11.0097 31.0992 11.2629 31.0203 11.3013 30.737C11.3376 30.4685 11.4879 29.6695 11.4879 29.6695C11.1351 30.2156 10.5208 30.2427 9.7829 30.2427C9.76649 30.2427 9.7501 30.2427 9.7338 30.2427C8.7985 30.2427 8.0828 30.2387 8.0828 29.7724C8.0828 29.6204 8.04005 28.3722 8.04005 26.5954C8.04005 24.1739 8.1315 22.84 8.1315 22.785C8.1315 22.7365 8.14659 22.1488 8.95834 22.0874H7.4647C6.8994 22.0874 6.68824 21.7317 6.68824 21.3829V19.831C6.68824 18.9152 6.75095 18.6537 7.22059 17.7911C7.3782 17.5 9.7419 13.3946 10.0675 13.3173H8.388C7.78925 13.3173 7.52849 12.8313 7.52849 12.59V6.45333C11.4939 12.4484 12.0181 13.4144 12.0605 13.4863C9.95239 13.9775 9.39225 15.7247 9.39225 17.8058C9.39225 19.8314 9.84939 21.5414 11.8559 22.0841C12.4016 22.2317 12.6189 22.8329 12.6189 23.3659C12.6189 23.362 12.6189 23.36 12.6189 23.36L12.6333 26.7257C12.6333 30.1097 12.4978 30.9086 12.0305 31.0722C12.5579 31.0252 13.0292 31.0182 13.4232 31.0182C14.2111 31.0182 14.6899 31.0722 14.6899 31.0722C14.2226 30.9086 14.0871 30.1097 14.0871 26.7257L14.1015 23.3456C14.1015 22.8343 14.4087 22.2118 14.8533 22.0973C16.9023 21.5697 17.367 19.8481 17.367 17.8058C17.367 15.6279 16.7886 13.8148 14.4067 13.4253L17.4408 13.425C18.5489 13.425 18.809 13.7862 18.809 17.5963C18.809 21.0606 18.5359 22.0874 17.9122 22.0874H17.0989C17.6538 22.2504 17.5748 23.1997 17.5748 26.5131C17.5748 30.1706 17.3965 30.8772 16.8339 31.0723C17.3389 31.0253 17.801 31.0183 18.1782 31.0183C18.9327 31.0183 19.3911 31.0723 19.3911 31.0723C18.8077 30.9374 18.9353 29.716 18.9072 27.0508C19.0873 27.0424 19.6428 27.0187 20.2374 27.0187C21.0099 27.0187 21.8483 27.0587 22.0141 27.224L22.264 25.9454C22.1599 26.0022 21.8216 26.0123 20.9441 26.0123C20.4553 26.0123 19.7992 26.0092 18.923 26.0092V23.3347C18.923 23.1204 19.0724 23.0301 20.5645 23.0301C21.3713 23.0301 22.1866 23.0873 22.2327 23.2722C22.3485 22.6158 22.4286 22.3352 22.4354 22.2967C22.4623 22.1437 22.3416 22.0874 22.2074 22.0874H20.8679C20.2561 22.0874 20.2174 21.6721 20.2174 21.4869C20.2174 21.46 20.2182 21.438 20.2182 21.4228V14.6057C20.2342 14.1682 20.5923 14.1213 20.5923 14.1213C20.9267 14.0544 21.2212 14.0241 21.4794 14.0241C22.6647 14.0241 23.0854 14.6626 23.0854 15.3332C23.0854 16.3984 22.3081 17.0254 21.4039 17.0254C21.3035 17.0254 21.2567 17.0111 21.217 17.0111C21.1868 17.0111 21.1606 17.0162 21.1446 17.0322C21.1178 17.0591 21.1302 17.099 21.136 17.1192C21.2414 17.4852 22.3365 20.045 23.2555 21.8986C23.2875 21.9631 23.4061 22.1415 23.5872 22.1415C24.3142 22.1415 24.2072 22.1415 24.2072 25.7208C24.2072 26.923 24.1916 28.3549 24.1385 29.7542C24.0609 30.9246 23.5814 31.0723 23.5814 31.0723C24.2113 31.0338 24.7006 31.0183 25.0761 31.0183C26.18 31.0183 26.5777 31.0993 28.4832 31.0993C29.205 31.0993 29.0685 31.0526 29.4175 29.426C29.2638 29.9076 28.7817 30.1485 27.1044 30.1485ZM15.7962 17.8766C15.7962 20.0183 15.3607 21.7544 13.3797 21.7544C11.3987 21.7544 10.9632 20.0183 10.9632 17.8766C10.9632 15.735 11.1837 13.9988 13.3797 13.9988C15.5757 13.9988 15.7962 15.735 15.7962 17.8766ZM20.0921 13.3173H18.3916C18.5426 11.8641 18.5482 11.5829 18.5482 11.5505C18.5482 11.5479 18.5482 11.5469 18.5482 11.5469C18.1105 12.3073 18.0259 12.3908 15.0019 12.3908C14.3465 12.3908 14.2044 11.8993 14.2009 11.6596C14.1849 10.5614 14.2014 9.72713 14.2014 9.40173C14.2014 9.33723 14.1857 9.18638 14.3309 9.18638C16.7722 9.10118 17.0562 9.26213 17.0639 9.29558L17.22 8.01448C16.8568 8.14238 15.8959 8.17178 15.1476 8.17178C14.6989 8.17178 14.3267 8.16118 14.2057 8.15493L14.2045 6.14398C14.2045 5.32643 14.7025 5.40288 16.255 5.40288C16.2705 5.40288 16.286 5.40288 16.3014 5.40288C16.8976 5.40288 17.4329 5.41188 17.735 6.12503C18.0387 6.72418 20.6112 11.9549 20.6112 12.9456C20.6112 13.2397 20.571 13.3173 20.0921 13.3173ZM22.6548 17.2599C24.0104 17.1045 24.5904 16.1602 24.5904 15.2484C24.5904 13.0981 22.2716 13.3038 21.908 13.3038C21.8279 13.3038 21.7441 13.3155 21.6564 13.3173C21.6564 12.5687 23.325 7.72328 23.7168 6.62523C24.222 7.71843 26.1694 12.7897 26.1694 13.3173H25.4967C25.964 13.4808 26.1002 14.2799 26.1002 17.6637C26.1002 19.9016 26.006 21.6125 26.006 21.7365C26.006 22.0331 25.9175 22.1414 25.7823 22.1414C25.108 22.1414 23.5877 19.3194 22.6548 17.2599ZM29.2585 16.8543C29.9587 16.0293 32.1742 13.596 32.7506 13.3173H31.572C31.572 13.3173 31.0299 13.3173 30.7076 13.69C30.7076 13.69 29.6521 14.8542 27.6681 17.198C27.6681 17.198 27.8242 17.2163 30.7917 21.8073C30.7917 21.8073 30.9929 22.1414 31.3725 22.1414H33.144C33.144 22.1414 32.4473 21.8986 29.2585 16.8543Z" fill="white"/>
</g>
<defs>
<clipPath id="clip0_637_3358">
<rect width="36" height="36" fill="white"/>
</clipPath>
</defs>
</svg>